<svg fill="none" xmlns="http://www.w3.org/2000/svg" viewBox="6.68 25 398.95 75">
<path d="M50 100L6.69873 25L93.3013 25L50 100Z" fill="#FDF7CD"/>
<path d="M49.1765 86.7352L49.7542 85.7439L48.2906 84.7157L48.5881 84.2052L50.0517 85.2334L50.868 83.8328L49.4044 82.8046L49.7018 82.2942L51.1655 83.3223L51.694 82.4153L52.1244 82.6661L51.5712 83.6153L53.5797 85.0175L54.1329 84.0683L54.5632 84.3191L53.983 85.3147L55.449 86.3386L55.1516 86.8491L53.688 85.821L52.8717 87.2216L54.3353 88.2497L54.0378 88.7602L52.5742 87.732L52.0456 88.639L51.6153 88.3883L52.1685 87.4391L50.16 86.0368L49.6068 86.986L49.1765 86.7352ZM52.466 86.9286L53.2822 85.528L51.2737 84.1258L50.4574 85.5264L52.466 86.9286ZM51.6983 80.0611L53.9469 81.3716L55.2967 79.0555L55.8155 79.3579L54.4658 81.674L57.229 83.2843L56.9119 83.8285L50.8623 80.303L52.8463 76.8985L53.3652 77.2009L51.6983 80.0611ZM59.899 75.2893C60.1043 75.409 60.274 75.5606 60.4081 75.7443C60.5439 75.9251 60.6399 76.1224 60.6962 76.336C60.7526 76.5497 60.7668 76.7709 60.7391 76.9996C60.7101 77.2238 60.6358 77.4386 60.5161 77.6439L59.3999 79.5592L53.3503 76.0336L54.4665 74.1184C54.5862 73.913 54.7378 73.7433 54.9215 73.6092C55.104 73.4707 55.302 73.3732 55.5157 73.3169C55.7294 73.2606 55.9497 73.2477 56.1768 73.2783C56.4027 73.3045 56.6183 73.3774 56.8236 73.497L59.899 75.2893ZM56.5064 74.0412C56.3714 73.9626 56.2315 73.9149 56.0867 73.8984C55.9391 73.8801 55.7955 73.8906 55.6558 73.9298C55.515 73.9646 55.3849 74.0262 55.2654 74.1149C55.1476 74.2007 55.0494 74.3111 54.9707 74.4461L54.1864 75.7918L59.1982 78.7126L59.9825 77.3668C60.0612 77.2318 60.1088 77.0919 60.1254 76.9471C60.1436 76.7995 60.1345 76.6567 60.0981 76.5187C60.0634 76.3779 60.0031 76.2486 59.9173 76.1307C59.8287 76.0113 59.7169 75.9122 59.5819 75.8335L56.5064 74.0412ZM56.9252 71.0922L59.1738 72.4026L60.5235 70.0866L61.0424 70.389L59.6927 72.705L62.4559 74.3154L62.1388 74.8596L56.0892 71.334L58.0732 67.9295L58.5921 68.2319L56.9252 71.0922ZM65.18 69.6411L64.8481 70.2106L60.6377 64.722L59.4133 66.8229L60.2191 67.2925L59.9019 67.8367L58.5772 67.0647L60.5097 63.7488L60.7712 63.9012L65.18 69.6411ZM67.75 62.0116C67.9553 62.1313 68.125 62.2829 68.2591 62.4666C68.3949 62.6474 68.4909 62.8447 68.5472 63.0584C68.6035 63.272 68.6186 63.4918 68.5925 63.7177C68.5635 63.9419 68.4892 64.1567 68.3696 64.362L68.1188 64.7923C67.9991 64.9977 67.8481 65.1696 67.6656 65.3081C67.4819 65.4422 67.2833 65.5375 67.0696 65.5938C66.8559 65.6501 66.6362 65.6652 66.4103 65.639C66.186 65.6101 65.9712 65.5358 65.7659 65.4161L62.5175 63.523C62.3122 63.4034 62.1417 63.2531 62.006 63.0723C61.8719 62.8887 61.7766 62.69 61.7203 62.4763C61.664 62.2627 61.6503 62.0437 61.6793 61.8194C61.7071 61.5907 61.7808 61.3737 61.9004 61.1684L62.1512 60.7381C62.2709 60.5328 62.4225 60.3631 62.6061 60.229C62.787 60.0933 62.9842 59.9972 63.1979 59.9409C63.4116 59.8846 63.6305 59.8709 63.8548 59.8999C64.0807 59.926 64.2963 59.9989 64.5016 60.1186L64.7463 60.2612L64.5135 60.8545L64.1844 60.6628C64.0494 60.5841 63.9095 60.5365 63.7647 60.5199C63.6171 60.5017 63.4743 60.5108 63.3363 60.5471C63.1983 60.5835 63.0696 60.646 62.9501 60.7346C62.8323 60.8204 62.734 60.9308 62.6554 61.0658L62.4341 61.4455C62.3554 61.5805 62.307 61.7218 62.2887 61.8695C62.2722 62.0143 62.2813 62.1571 62.316 62.2979C62.3524 62.4359 62.4149 62.5646 62.5035 62.6841C62.5893 62.8019 62.6997 62.9002 62.8347 62.9788L66.0831 64.8719C66.2181 64.9506 66.3594 64.999 66.507 65.0173C66.6518 65.0338 66.7946 65.0247 66.9355 64.99C67.0751 64.9508 67.2038 64.8883 67.3216 64.8025C67.4411 64.7139 67.5402 64.6021 67.6189 64.4671L67.8401 64.0874C67.9188 63.9524 67.9664 63.8125 67.983 63.6677C68.0012 63.5201 67.9921 63.3773 67.9558 63.2393C67.9166 63.0996 67.8541 62.9709 67.7683 62.8531C67.6796 62.7336 67.5678 62.6345 67.4328 62.5559L67.1038 62.3641L67.5095 61.8715L67.75 62.0116ZM70.3577 57.343C70.563 57.4627 70.7328 57.6143 70.8669 57.798C71.0026 57.9788 71.0986 58.176 71.155 58.3897C71.2113 58.6034 71.2255 58.8246 71.1978 59.0533C71.1688 59.2775 71.0945 59.4923 70.9748 59.6976L69.8587 61.6129L63.8091 58.0873L64.9252 56.172C65.0449 55.9667 65.1965 55.797 65.3802 55.6629C65.5627 55.5244 65.7607 55.4269 65.9744 55.3706C66.1881 55.3143 66.4084 55.3014 66.6355 55.332C66.8614 55.3582 67.077 55.4311 67.2823 55.5507L70.3577 57.343ZM66.9652 56.0949C66.8302 56.0163 66.6903 55.9686 66.5454 55.9521C66.3978 55.9338 66.2542 55.9443 66.1145 55.9835C65.9737 56.0183 65.8436 56.0799 65.7241 56.1686C65.6063 56.2544 65.5081 56.3648 65.4294 56.4998L64.6451 57.8455L69.6569 60.7663L70.4412 59.4205C70.5199 59.2855 70.5675 59.1456 70.5841 59.0008C70.6023 58.8532 70.5932 58.7104 70.5568 58.5724C70.5221 58.4316 70.4618 58.3023 70.376 58.1844C70.2874 58.065 70.1756 57.9659 70.0406 57.8872L66.9652 56.0949Z" fill="black"/>
<path d="M103 100L59.6987 25L146.301 25L103 100Z" fill="#00ECD8"/>
<path d="M102.147 86.7859L102.725 85.7945L101.261 84.7663L101.559 84.2559L103.022 85.284L103.838 83.8834L102.375 82.8553L102.672 82.3448L104.136 83.373L104.665 82.4659L105.095 82.7167L104.542 83.6659L106.55 85.0682L107.103 84.119L107.534 84.3697L106.953 85.3653L108.42 86.3893L108.122 86.8997L106.658 85.8716L105.842 87.2722L107.306 88.3003L107.008 88.8108L105.545 87.7826L105.016 88.6897L104.586 88.4389L105.139 87.4897L103.13 86.0874L102.577 87.0366L102.147 86.7859ZM105.436 86.9792L106.253 85.5786L104.244 84.1764L103.428 85.577L105.436 86.9792ZM110.313 79.92C110.519 80.0396 110.688 80.1913 110.823 80.3749C110.958 80.5558 111.054 80.753 111.111 80.9667C111.167 81.1804 111.182 81.4001 111.156 81.626C111.127 81.8503 111.053 82.0651 110.933 82.2704L110.783 82.5277C110.663 82.733 110.512 82.905 110.33 83.0435C110.146 83.1776 109.948 83.2728 109.734 83.3292C109.52 83.3855 109.3 83.4006 109.074 83.3744C108.85 83.3455 108.635 83.2712 108.43 83.1515L105.182 81.2584C104.976 81.1388 104.806 80.9885 104.67 80.8077C104.536 80.624 104.441 80.4254 104.385 80.2117C104.328 79.998 104.315 79.7791 104.343 79.5548C104.371 79.3261 104.445 79.1091 104.565 78.9038L104.715 78.6465C104.834 78.4412 104.986 78.2714 105.17 78.1373C105.35 78.0016 105.548 77.9056 105.761 77.8492C105.975 77.7929 106.194 77.7792 106.418 77.8082C106.644 77.8343 106.86 77.9072 107.065 78.0269L110.313 79.92ZM106.748 78.5711C106.613 78.4924 106.473 78.4448 106.328 78.4282C106.181 78.41 106.038 78.4191 105.9 78.4555C105.762 78.4918 105.633 78.5543 105.514 78.643C105.396 78.7288 105.297 78.8392 105.219 78.9742L105.098 79.1809C105.02 79.3159 104.971 79.4572 104.953 79.6048C104.936 79.7496 104.945 79.8925 104.98 80.0333C105.017 80.1713 105.079 80.3 105.168 80.4195C105.254 80.5373 105.364 80.6355 105.499 80.7142L108.747 82.6073C108.882 82.686 109.024 82.7344 109.171 82.7526C109.316 82.7692 109.459 82.7601 109.6 82.7254C109.739 82.6862 109.868 82.6237 109.986 82.5379C110.105 82.4493 110.204 82.3375 110.283 82.2025L110.404 81.9957C110.482 81.8607 110.53 81.7208 110.546 81.576C110.565 81.4284 110.556 81.2856 110.519 81.1476C110.48 81.008 110.417 80.8792 110.332 80.7614C110.243 80.6419 110.131 80.5429 109.996 80.4642L106.748 78.5711ZM112.905 75.4735C113.11 75.5931 113.28 75.7448 113.414 75.9284C113.55 76.1093 113.646 76.3065 113.702 76.5202C113.758 76.7339 113.773 76.9536 113.747 77.1795C113.718 77.4038 113.644 77.6186 113.524 77.8239L113.374 78.0812C113.255 78.2865 113.104 78.4585 112.921 78.597C112.737 78.7311 112.539 78.8263 112.325 78.8827C112.111 78.939 111.892 78.9541 111.666 78.9279C111.442 78.899 111.227 78.8247 111.021 78.705L107.773 76.8119C107.568 76.6923 107.397 76.542 107.262 76.3612C107.127 76.1775 107.032 75.9789 106.976 75.7652C106.92 75.5515 106.906 75.3326 106.935 75.1083C106.963 74.8796 107.036 74.6626 107.156 74.4573L107.306 74.2C107.426 73.9947 107.577 73.8249 107.761 73.6908C107.942 73.5551 108.139 73.4591 108.353 73.4027C108.566 73.3464 108.785 73.3327 109.01 73.3617C109.235 73.3878 109.451 73.4607 109.656 73.5804L112.905 75.4735ZM109.339 74.1246C109.204 74.0459 109.064 73.9983 108.919 73.9817C108.772 73.9635 108.629 73.9726 108.491 74.009C108.353 74.0453 108.224 74.1078 108.105 74.1965C107.987 74.2823 107.889 74.3927 107.81 74.5277L107.69 74.7344C107.611 74.8694 107.563 75.0107 107.544 75.1583C107.528 75.3031 107.537 75.446 107.572 75.5868C107.608 75.7248 107.67 75.8535 107.759 75.973C107.845 76.0908 107.955 76.189 108.09 76.2677L111.339 78.1608C111.474 78.2395 111.615 78.2879 111.763 78.3061C111.907 78.3227 112.05 78.3136 112.191 78.2789C112.331 78.2397 112.459 78.1772 112.577 78.0914C112.697 78.0028 112.796 77.891 112.874 77.756L112.995 77.5492C113.074 77.4142 113.121 77.2743 113.138 77.1295C113.156 76.9819 113.147 76.8391 113.11 76.7011C113.071 76.5615 113.009 76.4327 112.923 76.3149C112.834 76.1954 112.723 76.0964 112.588 76.0177L109.339 74.1246ZM115.065 74.9862L109.015 71.4606L110.999 68.0561L111.518 68.3585L109.851 71.2188L112.1 72.5292L113.45 70.2131L113.969 70.5155L112.619 72.8316L114.863 74.1395L116.53 71.2793L117.049 71.5817L115.065 74.9862ZM118.188 66.4075C118.393 66.5272 118.563 66.6788 118.697 66.8625C118.833 67.0433 118.929 67.2406 118.985 67.4542C119.042 67.6679 119.057 67.8877 119.031 68.1136C119.002 68.3378 118.927 68.5526 118.808 68.7579L118.557 69.1882C118.437 69.3935 118.286 69.5655 118.104 69.704C117.92 69.8381 117.721 69.9333 117.508 69.9897C117.294 70.046 117.074 70.0611 116.848 70.0349C116.624 70.006 116.409 69.9317 116.204 69.812L112.956 67.9189C112.75 67.7993 112.58 67.649 112.444 67.4682C112.31 67.2845 112.215 67.0859 112.158 66.8722C112.102 66.6585 112.088 66.4396 112.117 66.2153C112.145 65.9866 112.219 65.7696 112.339 65.5643L112.589 65.134C112.709 64.9287 112.861 64.759 113.044 64.6249C113.225 64.4891 113.422 64.3931 113.636 64.3368C113.85 64.2805 114.069 64.2668 114.293 64.2957C114.519 64.3219 114.734 64.3948 114.94 64.5144L115.184 64.657L114.952 65.2504L114.623 65.0586C114.488 64.98 114.348 64.9323 114.203 64.9158C114.055 64.8976 113.912 64.9066 113.774 64.943C113.636 64.9794 113.508 65.0419 113.388 65.1305C113.27 65.2163 113.172 65.3267 113.094 65.4617L112.872 65.8414C112.794 65.9764 112.745 66.1177 112.727 66.2653C112.71 66.4101 112.719 66.553 112.754 66.6938C112.791 66.8318 112.853 66.9605 112.942 67.08C113.027 67.1978 113.138 67.296 113.273 67.3747L116.521 69.2678C116.656 69.3465 116.798 69.3949 116.945 69.4131C117.09 69.4297 117.233 69.4206 117.374 69.3859C117.513 69.3467 117.642 69.2842 117.76 69.1984C117.879 69.1098 117.978 68.998 118.057 68.863L118.278 68.4833C118.357 68.3483 118.405 68.2084 118.421 68.0636C118.439 67.9159 118.43 67.7731 118.394 67.6351C118.355 67.4955 118.292 67.3668 118.206 67.2489C118.118 67.1295 118.006 67.0304 117.871 66.9517L117.542 66.76L117.948 66.2674L118.188 66.4075ZM120.796 61.7389C121.001 61.8585 121.171 62.0102 121.305 62.1938C121.441 62.3747 121.537 62.5719 121.593 62.7856C121.649 62.9993 121.664 63.2204 121.636 63.4492C121.607 63.6734 121.533 63.8882 121.413 64.0935L120.297 66.0088L114.247 62.4832L115.363 60.5679C115.483 60.3626 115.635 60.1929 115.818 60.0588C116.001 59.9202 116.199 59.8228 116.413 59.7665C116.626 59.7102 116.847 59.6973 117.074 59.7279C117.3 59.754 117.515 59.8269 117.72 59.9466L120.796 61.7389ZM117.403 60.4908C117.268 60.4121 117.128 60.3645 116.984 60.3479C116.836 60.3297 116.692 60.3402 116.553 60.3794C116.412 60.4141 116.282 60.4758 116.162 60.5644C116.044 60.6502 115.946 60.7606 115.868 60.8956L115.083 62.2414L120.095 65.1622L120.879 63.8164C120.958 63.6814 121.006 63.5415 121.022 63.3967C121.04 63.2491 121.031 63.1062 120.995 62.9683C120.96 62.8274 120.9 62.6981 120.814 62.5803C120.726 62.4608 120.614 62.3618 120.479 62.2831L117.403 60.4908ZM123.467 57.35C123.672 57.4696 123.842 57.6213 123.976 57.8049C124.112 57.9858 124.208 58.183 124.264 58.3967C124.32 58.6104 124.335 58.8302 124.309 59.056C124.28 59.2803 124.206 59.4951 124.086 59.7004L123.936 59.9577C123.817 60.163 123.666 60.335 123.483 60.4735C123.299 60.6076 123.101 60.7028 122.887 60.7592C122.673 60.8155 122.454 60.8306 122.228 60.8044C122.004 60.7755 121.789 60.7012 121.583 60.5815L121.081 60.2889C120.825 60.1398 120.626 59.9447 120.484 59.7036C120.341 59.4581 120.259 59.199 120.237 58.9263C119.989 59.0417 119.722 59.0975 119.438 59.0939C119.156 59.0875 118.886 59.0097 118.63 58.8605L118.335 58.6884C118.13 58.5688 117.959 58.4185 117.823 58.2377C117.689 58.054 117.594 57.8554 117.538 57.6417C117.481 57.428 117.468 57.2091 117.497 56.9848C117.525 56.7561 117.598 56.5391 117.718 56.3338L117.868 56.0765C117.988 55.8712 118.139 55.7015 118.323 55.5673C118.504 55.4316 118.701 55.3356 118.915 55.2792C119.128 55.2229 119.347 55.2092 119.572 55.2382C119.797 55.2644 120.013 55.3373 120.218 55.4569L120.514 55.629C120.77 55.7782 120.97 55.9741 121.115 56.2168C121.26 56.4595 121.343 56.7172 121.365 56.9899C121.613 56.8745 121.879 56.82 122.161 56.8265C122.441 56.8313 122.709 56.9083 122.965 57.0574L123.467 57.35ZM119.901 56.0011C119.766 55.9224 119.626 55.8748 119.481 55.8582C119.334 55.84 119.191 55.8491 119.053 55.8855C118.915 55.9219 118.786 55.9844 118.667 56.073C118.549 56.1588 118.451 56.2692 118.372 56.4042L118.252 56.6109C118.173 56.7459 118.124 56.8872 118.106 57.0348C118.09 57.1796 118.099 57.3225 118.133 57.4633C118.17 57.6013 118.232 57.73 118.321 57.8495C118.407 57.9673 118.517 58.0655 118.652 58.1442L118.948 58.3163C119.083 58.395 119.224 58.4434 119.371 58.4616C119.516 58.4782 119.658 58.4683 119.796 58.4319C119.935 58.3928 120.064 58.3303 120.182 58.2444C120.301 58.1558 120.4 58.044 120.479 57.909L120.6 57.7023C120.678 57.5673 120.726 57.4274 120.742 57.2826C120.761 57.135 120.752 56.9921 120.715 56.8542C120.679 56.7162 120.618 56.5882 120.532 56.4704C120.443 56.351 120.331 56.2519 120.196 56.1732L119.901 56.0011ZM122.648 57.6016C122.513 57.523 122.373 57.4753 122.228 57.4588C122.08 57.4405 121.937 57.4496 121.799 57.486C121.661 57.5224 121.533 57.5849 121.413 57.6735C121.295 57.7593 121.197 57.8697 121.118 58.0047L120.998 58.2114C120.919 58.3464 120.871 58.4877 120.853 58.6354C120.836 58.7802 120.845 58.923 120.88 59.0638C120.916 59.2018 120.979 59.3305 121.067 59.45C121.153 59.5678 121.264 59.6661 121.399 59.7447L121.901 60.0373C122.036 60.116 122.177 60.1644 122.325 60.1826C122.469 60.1992 122.612 60.1901 122.753 60.1554C122.893 60.1162 123.021 60.0537 123.139 59.9679C123.259 59.8793 123.358 59.7675 123.436 59.6325L123.557 59.4258C123.636 59.2908 123.683 59.1508 123.7 59.006C123.718 58.8584 123.709 58.7156 123.672 58.5776C123.633 58.438 123.571 58.3092 123.485 58.1914C123.396 58.0719 123.285 57.9729 123.15 57.8942L122.648 57.6016Z" fill="black"/>
<path d="M153 100L109.699 25L196.301 25L153 100Z" fill="#E92741"/>
<path d="M152.341 86.4526L152.919 85.4612L151.455 84.4331L151.753 83.9226L153.216 84.9507L154.033 83.5501L152.569 82.522L152.867 82.0115L154.33 83.0397L154.859 82.1327L155.289 82.3834L154.736 83.3326L156.744 84.7349L157.298 83.7857L157.728 84.0364L157.148 85.0321L158.614 86.056L158.316 86.5665L156.853 85.5383L156.036 86.9389L157.5 87.9671L157.203 88.4775L155.739 87.4494L155.21 88.3564L154.78 88.1056L155.333 87.1564L153.325 85.7542L152.772 86.7034L152.341 86.4526ZM155.631 86.6459L156.447 85.2453L154.438 83.8431L153.622 85.2437L155.631 86.6459ZM160.077 83.5459L154.027 80.0203L156.011 76.6158L156.53 76.9182L154.863 79.7785L157.112 81.0889L158.461 78.7728L158.98 79.0752L157.631 81.3913L159.875 82.6993L161.542 79.839L162.061 80.1414L160.077 83.5459ZM163.151 75.0516C163.356 75.1713 163.526 75.3229 163.66 75.5066C163.795 75.6874 163.891 75.8847 163.948 76.0983C164.004 76.312 164.019 76.5318 163.993 76.7577C163.964 76.9819 163.89 77.1967 163.77 77.402L163.618 77.6636C163.498 77.8689 163.348 78.0394 163.167 78.1751C162.983 78.3093 162.785 78.4045 162.571 78.4608C162.357 78.5171 162.138 78.5322 161.912 78.5061C161.687 78.4771 161.473 78.4028 161.267 78.2831L161.111 78.1922L161.344 77.5988L161.584 77.7389C161.719 77.8176 161.861 77.866 162.008 77.8843C162.153 77.9008 162.296 77.8918 162.437 77.857C162.575 77.8206 162.703 77.7595 162.821 77.6737C162.94 77.5851 163.039 77.4733 163.118 77.3383L163.238 77.1316C163.317 76.9966 163.365 76.8567 163.381 76.7119C163.399 76.5643 163.39 76.4214 163.354 76.2834C163.316 76.141 163.255 76.0109 163.169 75.893C163.08 75.7736 162.968 75.6745 162.833 75.5958L161.332 74.7206C161.401 74.9497 161.427 75.1869 161.408 75.4323C161.387 75.676 161.312 75.9075 161.185 76.1269L161.133 76.2155C161.013 76.4208 160.863 76.5913 160.682 76.7271C160.499 76.8612 160.3 76.9564 160.086 77.0127C159.873 77.069 159.653 77.0841 159.427 77.058C159.2 77.0274 158.984 76.9522 158.778 76.8326L158.019 76.39C157.814 76.2704 157.643 76.1202 157.507 75.9393C157.373 75.7557 157.278 75.557 157.222 75.3433C157.165 75.1297 157.152 74.9107 157.181 74.6865C157.207 74.4606 157.28 74.245 157.399 74.0397L157.552 73.7781C157.671 73.5728 157.823 73.4031 158.007 73.269C158.188 73.1332 158.385 73.0372 158.598 72.9809C158.812 72.9245 159.031 72.9109 159.255 72.9398C159.481 72.966 159.697 73.0389 159.902 73.1585L163.151 75.0516ZM159.585 73.7027C159.45 73.6241 159.31 73.5764 159.165 73.5599C159.018 73.5416 158.874 73.5521 158.734 73.5913C158.596 73.6277 158.468 73.6902 158.348 73.7788C158.23 73.8646 158.132 73.975 158.053 74.11L157.933 74.3167C157.854 74.4517 157.806 74.5931 157.788 74.7407C157.771 74.8855 157.781 75.0269 157.817 75.1649C157.854 75.3029 157.916 75.4316 158.005 75.5511C158.091 75.6689 158.201 75.7672 158.336 75.8458L159.095 76.2884C159.23 76.367 159.372 76.4155 159.519 76.4337C159.664 76.4503 159.807 76.4412 159.948 76.4065C160.086 76.3701 160.214 76.309 160.332 76.2232C160.451 76.1346 160.55 76.0228 160.629 75.8878L160.749 75.681C160.828 75.546 160.876 75.4061 160.892 75.2613C160.91 75.1137 160.901 74.9709 160.865 74.8329C160.827 74.6904 160.766 74.5603 160.68 74.4425C160.591 74.323 160.479 74.224 160.344 74.1453L159.585 73.7027ZM160.399 70.0854C160.32 70.2204 160.272 70.3617 160.254 70.5093C160.237 70.6541 160.247 70.7956 160.283 70.9335C160.32 71.0715 160.382 71.2003 160.471 71.3197C160.557 71.4376 160.667 71.5358 160.802 71.6145L161.047 71.7571L160.641 72.2497L160.485 72.1587C160.28 72.039 160.109 71.8888 159.973 71.708C159.839 71.5243 159.744 71.3257 159.688 71.112C159.631 70.8983 159.618 70.6794 159.647 70.4551C159.673 70.2292 159.746 70.0136 159.865 69.8083L160.015 69.551C160.135 69.3457 160.284 69.1743 160.462 69.0369C160.641 68.8967 160.84 68.7993 161.056 68.7446C161.272 68.6899 161.5 68.6812 161.738 68.7183C161.975 68.751 162.215 68.8379 162.457 68.9788C162.696 69.1181 162.915 69.2948 163.114 69.5089C163.315 69.7202 163.498 69.9529 163.662 70.2071C163.829 70.4584 163.977 70.7239 164.108 71.0037C164.241 71.2806 164.358 71.5543 164.46 71.8249C164.698 72.4572 164.891 73.1289 165.038 73.84L166.523 71.2919L167.042 71.5943L165.058 74.9988L164.627 74.748C164.501 73.9697 164.326 73.2386 164.103 72.5547C164.006 72.2612 163.895 71.9644 163.768 71.6646C163.641 71.3647 163.499 71.0798 163.339 70.81C163.177 70.5385 162.997 70.292 162.798 70.0707C162.598 69.8449 162.379 69.6623 162.14 69.523C161.962 69.4198 161.792 69.3563 161.629 69.3327C161.465 69.3091 161.314 69.3169 161.174 69.3561C161.035 69.3953 160.909 69.4617 160.798 69.5552C160.686 69.6443 160.593 69.7521 160.519 69.8787L160.399 70.0854ZM168.251 69.5187L167.919 70.0883L163.709 64.5996L162.485 66.7006L163.29 67.1701L162.973 67.7143L161.649 66.9424L163.581 63.6265L163.843 63.7789L168.251 69.5187ZM170.723 62.8721L171.77 63.4818L171.452 64.026L170.406 63.4163L168.99 65.8462L168.733 65.6963L165.553 60.2431L165.72 59.9562L170.204 62.5697L170.507 62.0508L171.026 62.3532L170.723 62.8721ZM166.892 61.3683L168.916 64.7803L169.887 63.1139L166.892 61.3683ZM172.827 61.6677L172.308 61.3653L173.149 59.9226L168.137 57.0018L167.903 58.7986L167.385 58.4962L167.618 56.6994L167.935 56.1552L173.466 59.3783L174.307 57.9355L174.825 58.238L172.827 61.6677Z" fill="black"/>
<path d="M202.301 100L159 25L245.603 25L202.301 100Z" fill="#3EC840"/>
<path d="M202.272 86.5707L202.85 85.5793L201.387 84.5512L201.684 84.0407L203.148 85.0689L203.964 83.6683L202.5 82.6401L202.798 82.1296L204.261 83.1578L204.79 82.2508L205.22 82.5016L204.667 83.4508L206.676 84.853L207.229 83.9038L207.659 84.1546L207.079 85.1502L208.545 86.1741L208.247 86.6846L206.784 85.6564L205.968 87.057L207.431 88.0852L207.134 88.5956L205.67 87.5675L205.142 88.4745L204.711 88.2237L205.264 87.2745L203.256 85.8723L202.703 86.8215L202.272 86.5707ZM205.562 86.7641L206.378 85.3635L204.37 83.9612L203.553 85.3618L205.562 86.7641ZM210.439 79.7048C210.644 79.8245 210.814 79.9761 210.948 80.1598C211.084 80.3406 211.18 80.5379 211.236 80.7515C211.292 80.9652 211.307 81.185 211.281 81.4109C211.252 81.6351 211.178 81.8499 211.058 82.0552L210.908 82.3126C210.789 82.5179 210.638 82.6898 210.455 82.8284C210.272 82.9625 210.073 83.0577 209.859 83.114C209.646 83.1703 209.426 83.1854 209.2 83.1593C208.976 83.1303 208.761 83.056 208.556 82.9363L208.399 82.8454L208.632 82.252L208.873 82.3921C209.008 82.4708 209.149 82.5193 209.297 82.5375C209.441 82.554 209.584 82.545 209.725 82.5102C209.865 82.471 209.993 82.4085 210.111 82.3227C210.231 82.2341 210.33 82.1223 210.408 81.9873L210.529 81.7806C210.608 81.6456 210.655 81.5057 210.672 81.3609C210.69 81.2132 210.681 81.0704 210.645 80.9324C210.605 80.7928 210.543 80.6641 210.457 80.5462C210.368 80.4268 210.257 80.3277 210.122 80.249L209.62 79.9565C209.485 79.8778 209.345 79.8302 209.2 79.8136C209.052 79.7954 208.909 79.8045 208.771 79.8408C208.633 79.8772 208.505 79.9397 208.385 80.0283C208.267 80.1141 208.169 80.2245 208.091 80.3595L207.854 80.7645L207.336 80.4621L207.572 80.0571C207.65 79.9221 207.698 79.7822 207.714 79.6374C207.733 79.4898 207.724 79.347 207.687 79.209C207.651 79.071 207.59 78.9431 207.504 78.8253C207.415 78.7058 207.304 78.6067 207.169 78.5281L206.873 78.356C206.738 78.2773 206.598 78.2297 206.454 78.2131C206.306 78.1949 206.163 78.2039 206.025 78.2403C205.887 78.2767 205.758 78.3392 205.639 78.4278C205.521 78.5136 205.423 78.624 205.344 78.759L205.224 78.9657C205.145 79.1007 205.097 79.242 205.078 79.3897C205.062 79.5345 205.071 79.6773 205.106 79.8181C205.142 79.9561 205.204 80.0848 205.293 80.2043C205.379 80.3221 205.489 80.4204 205.624 80.499L205.869 80.6416L205.463 81.1342L205.307 81.0433C205.102 80.9236 204.931 80.7734 204.796 80.5925C204.661 80.4089 204.566 80.2102 204.51 79.9966C204.454 79.7829 204.44 79.5639 204.469 79.3397C204.497 79.111 204.57 78.894 204.69 78.6886L204.84 78.4313C204.96 78.226 205.111 78.0563 205.295 77.9222C205.476 77.7864 205.673 77.6904 205.887 77.6341C206.1 77.5778 206.319 77.5641 206.544 77.593C206.769 77.6192 206.985 77.6921 207.19 77.8117L207.397 77.9322C207.541 78.0158 207.667 78.1158 207.776 78.2322C207.884 78.3442 207.974 78.4681 208.046 78.604C208.119 78.737 208.174 78.8784 208.211 79.0281C208.245 79.1762 208.26 79.3281 208.256 79.484C208.387 79.4019 208.526 79.3401 208.675 79.2986C208.821 79.2554 208.969 79.2328 209.121 79.2309C209.275 79.2261 209.428 79.244 209.582 79.2845C209.734 79.3205 209.882 79.3803 210.025 79.4639L210.439 79.7048ZM212.599 79.2175L206.549 75.6919L208.534 72.2874L209.052 72.5898L207.386 75.4501L209.634 76.7605L210.984 74.4445L211.503 74.7469L210.153 77.0629L212.397 78.3709L214.064 75.5106L214.583 75.813L212.599 79.2175ZM215.722 70.6389C215.928 70.7585 216.097 70.9102 216.231 71.0938C216.367 71.2746 216.463 71.4719 216.519 71.6856C216.576 71.8992 216.591 72.119 216.565 72.3449C216.536 72.5692 216.461 72.7839 216.342 72.9893L216.091 73.4196C215.971 73.6249 215.82 73.7968 215.638 73.9354C215.454 74.0695 215.256 74.1647 215.042 74.221C214.828 74.2773 214.608 74.2924 214.383 74.2663C214.158 74.2373 213.943 74.163 213.738 74.0433L210.49 72.1503C210.284 72.0306 210.114 71.8804 209.978 71.6995C209.844 71.5159 209.749 71.3172 209.693 71.1036C209.636 70.8899 209.623 70.6709 209.652 70.4467C209.679 70.218 209.753 70.001 209.873 69.7956L210.123 69.3653C210.243 69.16 210.395 68.9903 210.578 68.8562C210.759 68.7205 210.956 68.6244 211.17 68.5681C211.384 68.5118 211.603 68.4981 211.827 68.5271C212.053 68.5532 212.269 68.6261 212.474 68.7458L212.719 68.8884L212.486 69.4818L212.157 69.29C212.022 69.2113 211.882 69.1637 211.737 69.1471C211.589 69.1289 211.447 69.138 211.309 69.1744C211.171 69.2107 211.042 69.2732 210.922 69.3618C210.805 69.4477 210.706 69.5581 210.628 69.6931L210.406 70.0727C210.328 70.2077 210.279 70.3491 210.261 70.4967C210.244 70.6415 210.253 70.7843 210.288 70.9251C210.325 71.0631 210.387 71.1918 210.476 71.3113C210.562 71.4291 210.672 71.5274 210.807 71.606L214.055 73.4991C214.19 73.5778 214.332 73.6263 214.479 73.6445C214.624 73.661 214.767 73.652 214.908 73.6172C215.047 73.578 215.176 73.5155 215.294 73.4297C215.413 73.3411 215.512 73.2293 215.591 73.0943L215.812 72.7146C215.891 72.5796 215.939 72.4397 215.955 72.2949C215.973 72.1473 215.964 72.0045 215.928 71.8665C215.889 71.7268 215.826 71.5981 215.741 71.4803C215.652 71.3608 215.54 71.2618 215.405 71.1831L215.076 70.9913L215.482 70.4987L215.722 70.6389ZM218.262 66.281C218.467 66.4006 218.637 66.5523 218.771 66.7359C218.907 66.9167 219.003 67.114 219.059 67.3277C219.115 67.5413 219.131 67.7611 219.104 67.987C219.075 68.2113 219.001 68.426 218.881 68.6314L218.732 68.8887C218.612 69.094 218.461 69.2659 218.278 69.4045C218.095 69.5386 217.896 69.6338 217.682 69.6901C217.469 69.7465 217.249 69.7615 217.023 69.7354C216.799 69.7064 216.584 69.6321 216.379 69.5125L215.877 69.2199C215.621 69.0708 215.422 68.8757 215.28 68.6346C215.136 68.3891 215.054 68.13 215.032 67.8572C214.784 67.9726 214.518 68.0285 214.233 68.0249C213.951 68.0184 213.682 67.9406 213.426 67.7915L213.13 67.6194C212.925 67.4997 212.754 67.3495 212.619 67.1687C212.485 66.985 212.389 66.7864 212.333 66.5727C212.277 66.359 212.263 66.14 212.292 65.9158C212.32 65.6871 212.394 65.4701 212.513 65.2648L212.663 65.0074C212.783 64.8021 212.934 64.6324 213.118 64.4983C213.299 64.3626 213.496 64.2665 213.71 64.2102C213.924 64.1539 214.142 64.1402 214.367 64.1692C214.593 64.1953 214.808 64.2682 215.014 64.3879L215.309 64.56C215.565 64.7091 215.765 64.905 215.91 65.1477C216.055 65.3904 216.138 65.6481 216.16 65.9209C216.408 65.8055 216.674 65.751 216.956 65.7575C217.236 65.7623 217.504 65.8392 217.76 65.9884L218.262 66.281ZM214.696 64.9321C214.561 64.8534 214.421 64.8058 214.277 64.7892C214.129 64.771 213.986 64.7801 213.848 64.8164C213.71 64.8528 213.581 64.9153 213.462 65.0039C213.344 65.0898 213.246 65.2002 213.167 65.3352L213.047 65.5419C212.968 65.6769 212.92 65.8182 212.901 65.9658C212.885 66.1106 212.894 66.2534 212.929 66.3942C212.965 66.5322 213.028 66.661 213.116 66.7804C213.202 66.8983 213.312 66.9965 213.447 67.0752L213.743 67.2473C213.878 67.3259 214.019 67.3744 214.167 67.3926C214.311 67.4092 214.453 67.3993 214.591 67.3629C214.731 67.3237 214.859 67.2612 214.977 67.1754C215.097 67.0868 215.196 66.975 215.274 66.84L215.395 66.6333C215.473 66.4983 215.521 66.3584 215.538 66.2136C215.556 66.0659 215.547 65.9231 215.51 65.7851C215.474 65.6471 215.413 65.5192 215.327 65.4014C215.238 65.2819 215.127 65.1829 214.992 65.1042L214.696 64.9321ZM217.443 66.5326C217.308 66.4539 217.168 66.4063 217.023 66.3897C216.875 66.3715 216.733 66.3806 216.595 66.417C216.457 66.4533 216.328 66.5158 216.208 66.6045C216.091 66.6903 215.992 66.8007 215.914 66.9357L215.793 67.1424C215.715 67.2774 215.666 67.4187 215.648 67.5663C215.631 67.7111 215.64 67.8539 215.675 67.9948C215.711 68.1328 215.774 68.2615 215.863 68.3809C215.948 68.4988 216.059 68.597 216.194 68.6757L216.696 68.9683C216.831 69.0469 216.972 69.0954 217.12 69.1136C217.265 69.1302 217.407 69.1211 217.548 69.0864C217.688 69.0472 217.817 68.9847 217.934 68.8989C218.054 68.8102 218.153 68.6984 218.232 68.5634L218.352 68.3567C218.431 68.2217 218.478 68.0818 218.495 67.937C218.513 67.7894 218.504 67.6466 218.468 67.5086C218.428 67.3689 218.366 67.2402 218.28 67.1224C218.192 67.0029 218.08 66.9038 217.945 66.8252L217.443 66.5326ZM220.856 62.6443L221.902 63.254L221.585 63.7982L220.539 63.1885L219.123 65.6184L218.865 65.4685L215.685 60.0153L215.853 59.7284L220.337 62.3418L220.64 61.823L221.158 62.1254L220.856 62.6443ZM217.025 61.1405L219.049 64.5524L220.02 62.8861L217.025 61.1405ZM223.341 57.5651C223.547 57.6848 223.716 57.8364 223.85 58.0201C223.986 58.2009 224.082 58.3982 224.139 58.6119C224.195 58.8255 224.21 59.0453 224.184 59.2712C224.155 59.4954 224.081 59.7102 223.961 59.9155L223.811 60.1729C223.691 60.3782 223.54 60.5501 223.358 60.6887C223.174 60.8228 222.975 60.918 222.762 60.9743C222.548 61.0306 222.328 61.0457 222.102 61.0196C221.878 60.9906 221.663 60.9163 221.458 60.7967L218.21 58.9036C218.004 58.7839 217.834 58.6337 217.698 58.4528C217.564 58.2692 217.469 58.0705 217.412 57.8569C217.356 57.6432 217.342 57.4242 217.371 57.2C217.399 56.9713 217.473 56.7543 217.593 56.549L217.743 56.2916C217.862 56.0863 218.014 55.9166 218.197 55.7825C218.378 55.6468 218.576 55.5507 218.789 55.4944C219.003 55.4381 219.222 55.4244 219.446 55.4534C219.672 55.4795 219.888 55.5524 220.093 55.6721L223.341 57.5651ZM219.776 56.2163C219.641 56.1376 219.501 56.09 219.356 56.0734C219.208 56.0552 219.066 56.0643 218.928 56.1006C218.79 56.137 218.661 56.1995 218.541 56.2881C218.424 56.3739 218.325 56.4843 218.247 56.6193L218.126 56.8261C218.048 56.9611 217.999 57.1024 217.981 57.25C217.964 57.3948 217.973 57.5376 218.008 57.6784C218.044 57.8164 218.107 57.9451 218.196 58.0646C218.281 58.1824 218.392 58.2807 218.527 58.3594L221.775 60.2525C221.91 60.3311 222.052 60.3796 222.199 60.3978C222.344 60.4144 222.487 60.4053 222.628 60.3705C222.767 60.3314 222.896 60.2689 223.014 60.183C223.133 60.0944 223.232 59.9826 223.311 59.8476L223.431 59.6409C223.51 59.5059 223.558 59.366 223.574 59.2212C223.593 59.0736 223.583 58.9308 223.547 58.7928C223.508 58.6531 223.445 58.5244 223.36 58.4066C223.271 58.2871 223.159 58.188 223.024 58.1094L219.776 56.2163Z" fill="black"/>
<path d="M256.301 100L213 25L299.603 25L256.301 100Z" fill="#E1DC3F"/>
<path d="M256.191 86.7099L256.769 85.7185L255.305 84.6904L255.603 84.1799L257.066 85.2081L257.883 83.8075L256.419 82.7793L256.717 82.2689L258.18 83.297L258.709 82.39L259.139 82.6408L258.586 83.59L260.594 84.9922L261.148 84.043L261.578 84.2938L260.998 85.2894L262.464 86.3133L262.166 86.8238L260.703 85.7956L259.886 87.1962L261.35 88.2244L261.053 88.7349L259.589 87.7067L259.06 88.6137L258.63 88.363L259.183 87.4138L257.175 86.0115L256.622 86.9607L256.191 86.7099ZM259.481 86.9033L260.297 85.5027L258.288 84.1004L257.472 85.501L259.481 86.9033ZM263.927 83.8032L257.877 80.2776L259.861 76.8732L260.38 77.1756L258.713 80.0358L260.962 81.3462L262.311 79.0302L262.83 79.3326L261.481 81.6486L263.725 82.9566L265.392 80.0963L265.911 80.3987L263.927 83.8032ZM266.518 79.3567L265.999 79.0543L266.84 77.6115L261.828 74.6908L261.595 76.4876L261.076 76.1852L261.309 74.3884L261.626 73.8441L267.157 77.0673L267.998 75.6245L268.517 75.9269L266.518 79.3567ZM269.623 70.615C269.828 70.7347 269.998 70.8863 270.132 71.07C270.268 71.2508 270.364 71.448 270.42 71.6617C270.477 71.8754 270.491 72.0966 270.463 72.3253C270.434 72.5495 270.36 72.7643 270.24 72.9696L269.124 74.8849L263.074 71.3593L264.191 69.444C264.31 69.2387 264.462 69.069 264.646 68.9349C264.828 68.7964 265.026 68.6989 265.24 68.6426C265.453 68.5863 265.674 68.5734 265.901 68.604C266.127 68.6302 266.342 68.7031 266.548 68.8227L269.623 70.615ZM266.231 69.3669C266.096 69.2883 265.956 69.2406 265.811 69.2241C265.663 69.2058 265.52 69.2163 265.38 69.2555C265.239 69.2903 265.109 69.3519 264.99 69.4406C264.872 69.5264 264.773 69.6368 264.695 69.7718L263.91 71.1175L268.922 74.0383L269.707 72.6925C269.785 72.5575 269.833 72.4176 269.849 72.2728C269.868 72.1252 269.859 71.9824 269.822 71.8444C269.787 71.7036 269.727 71.5743 269.641 71.4564C269.553 71.337 269.441 71.2379 269.306 71.1592L266.231 69.3669ZM272.395 66.0532C272.6 66.1728 272.77 66.3244 272.904 66.5081C273.04 66.6889 273.136 66.8862 273.192 67.0999C273.248 67.3135 273.263 67.5333 273.237 67.7592C273.208 67.9835 273.134 68.1982 273.014 68.4035L272.763 68.8338C272.644 69.0392 272.493 69.2111 272.31 69.3496C272.127 69.4838 271.928 69.579 271.714 69.6353C271.501 69.6916 271.281 69.7067 271.055 69.6806C270.831 69.6516 270.616 69.5773 270.411 69.4576L267.162 67.5645C266.957 67.4449 266.786 67.2947 266.651 67.1138C266.517 66.9302 266.421 66.7315 266.365 66.5178C266.309 66.3042 266.295 66.0852 266.324 65.861C266.352 65.6322 266.425 65.4152 266.545 65.2099L266.796 64.7796C266.916 64.5743 267.067 64.4046 267.251 64.2705C267.432 64.1348 267.629 64.0387 267.843 63.9824C268.056 63.9261 268.275 63.9124 268.499 63.9414C268.725 63.9675 268.941 64.0404 269.146 64.1601L269.391 64.3027L269.158 64.896L268.829 64.7043C268.694 64.6256 268.554 64.578 268.409 64.5614C268.262 64.5432 268.119 64.5523 267.981 64.5886C267.843 64.625 267.714 64.6875 267.595 64.7761C267.477 64.8619 267.379 64.9723 267.3 65.1073L267.079 65.487C267 65.622 266.952 65.7633 266.933 65.911C266.917 66.0558 266.926 66.1986 266.961 66.3394C266.997 66.4774 267.06 66.6061 267.148 66.7256C267.234 66.8434 267.344 66.9417 267.479 67.0203L270.728 68.9134C270.863 68.9921 271.004 69.0405 271.152 69.0588C271.297 69.0753 271.439 69.0663 271.58 69.0315C271.72 68.9923 271.849 68.9298 271.966 68.844C272.086 68.7554 272.185 68.6436 272.264 68.5086L272.485 68.1289C272.563 67.9939 272.611 67.854 272.628 67.7092C272.646 67.5616 272.637 67.4188 272.6 67.2808C272.561 67.1411 272.499 67.0124 272.413 66.8946C272.324 66.7751 272.213 66.676 272.078 66.5974L271.748 66.4056L272.154 65.913L272.395 66.0532ZM274.934 61.6952C275.14 61.8149 275.309 61.9665 275.443 62.1502C275.579 62.331 275.675 62.5283 275.732 62.7419C275.788 62.9556 275.803 63.1754 275.777 63.4013C275.748 63.6255 275.674 63.8403 275.554 64.0456L275.404 64.303C275.284 64.5083 275.133 64.6802 274.951 64.8188C274.767 64.9529 274.568 65.0481 274.355 65.1044C274.141 65.1607 273.921 65.1758 273.695 65.1497C273.471 65.1207 273.256 65.0464 273.051 64.9268L272.895 64.8358L273.128 64.2424L273.368 64.3825C273.503 64.4612 273.645 64.5097 273.792 64.5279C273.937 64.5445 274.08 64.5354 274.221 64.5006C274.36 64.4615 274.489 64.399 274.607 64.3131C274.726 64.2245 274.825 64.1127 274.904 63.9777L275.025 63.771C275.103 63.636 275.151 63.4961 275.167 63.3513C275.186 63.2037 275.177 63.0608 275.14 62.9229C275.101 62.7832 275.038 62.6545 274.953 62.5367C274.864 62.4172 274.752 62.3181 274.617 62.2395L274.115 61.9469C273.98 61.8682 273.84 61.8206 273.695 61.804C273.548 61.7858 273.405 61.7949 273.267 61.8313C273.129 61.8676 273 61.9301 272.881 62.0187C272.763 62.1046 272.665 62.215 272.586 62.35L272.35 62.755L271.831 62.4525L272.067 62.0476C272.146 61.9126 272.194 61.7727 272.21 61.6278C272.228 61.4802 272.219 61.3374 272.183 61.1994C272.146 61.0614 272.085 60.9335 272 60.8157C271.911 60.6962 271.799 60.5971 271.664 60.5185L271.369 60.3464C271.234 60.2677 271.094 60.2201 270.949 60.2035C270.801 60.1853 270.659 60.1944 270.521 60.2307C270.383 60.2671 270.254 60.3296 270.134 60.4182C270.017 60.504 269.918 60.6144 269.84 60.7494L269.719 60.9562C269.641 61.0911 269.592 61.2325 269.574 61.3801C269.557 61.5249 269.566 61.6677 269.601 61.8085C269.638 61.9465 269.7 62.0752 269.789 62.1947C269.874 62.3125 269.985 62.4108 270.12 62.4895L270.365 62.6321L269.959 63.1246L269.803 63.0337C269.597 62.914 269.427 62.7638 269.291 62.5829C269.157 62.3993 269.062 62.2006 269.006 61.987C268.949 61.7733 268.935 61.5543 268.964 61.3301C268.992 61.1014 269.066 60.8844 269.186 60.6791L269.336 60.4217C269.455 60.2164 269.607 60.0467 269.791 59.9126C269.971 59.7769 270.169 59.6808 270.382 59.6245C270.596 59.5682 270.815 59.5545 271.039 59.5835C271.265 59.6096 271.481 59.6825 271.686 59.8022L271.893 59.9226C272.036 60.0062 272.162 60.1062 272.272 60.2226C272.38 60.3346 272.47 60.4585 272.541 60.5944C272.614 60.7274 272.669 60.8688 272.706 61.0185C272.741 61.1666 272.756 61.3185 272.752 61.4744C272.882 61.3923 273.022 61.3305 273.171 61.289C273.316 61.2458 273.465 61.2232 273.617 61.2213C273.77 61.2166 273.924 61.2344 274.077 61.2749C274.23 61.3109 274.378 61.3707 274.521 61.4543L274.934 61.6952ZM271.881 57.4405L274.13 58.7509L275.479 56.4349L275.998 56.7373L274.649 59.0533L277.412 60.6637L277.095 61.2079L271.045 57.6823L273.029 54.2779L273.548 54.5803L271.881 57.4405Z" fill="black"/>
<path d="M308.301 100L265 25L351.603 25L308.301 100Z" fill="#418FDD"/>
<path d="M308.169 86.7479L308.747 85.7565L307.283 84.7284L307.581 84.2179L309.044 85.2461L309.861 83.8454L308.397 82.8173L308.694 82.3068L310.158 83.335L310.687 82.428L311.117 82.6787L310.564 83.6279L312.572 85.0302L313.126 84.081L313.556 84.3318L312.976 85.3274L314.442 86.3513L314.144 86.8618L312.681 85.8336L311.864 87.2342L313.328 88.2624L313.03 88.7728L311.567 87.7447L311.038 88.6517L310.608 88.4009L311.161 87.4517L309.153 86.0495L308.599 86.9987L308.169 86.7479ZM311.459 86.9413L312.275 85.5407L310.266 84.1384L309.45 85.539L311.459 86.9413ZM316.338 80.6918L317.385 81.3015L317.067 81.8457L316.021 81.236L314.605 83.666L314.348 83.516L311.168 78.0628L311.335 77.776L315.819 80.3894L316.122 79.8705L316.641 80.1729L316.338 80.6918ZM312.507 79.188L314.531 82.6L315.502 80.9336L312.507 79.188ZM318.442 79.4875L317.923 79.1851L318.764 77.7423L313.752 74.8215L313.519 76.6184L313 76.316L313.233 74.5191L313.55 73.9749L319.081 77.1981L319.922 75.7553L320.441 76.0577L318.442 79.4875ZM321.479 71.0565C321.684 71.1762 321.854 71.3278 321.988 71.5115C322.124 71.6923 322.22 71.8896 322.276 72.1032C322.332 72.3169 322.347 72.5367 322.321 72.7626C322.292 72.9868 322.218 73.2016 322.098 73.4069L321.948 73.6642C321.829 73.8696 321.678 74.0415 321.495 74.18C321.312 74.3142 321.113 74.4094 320.899 74.4657C320.686 74.522 320.466 74.5371 320.24 74.511C320.016 74.482 319.801 74.4077 319.596 74.288L319.094 73.9955C318.838 73.8463 318.639 73.6512 318.497 73.4102C318.353 73.1647 318.271 72.9055 318.249 72.6328C318.001 72.7482 317.734 72.8041 317.45 72.8004C317.168 72.794 316.898 72.7162 316.642 72.567L316.347 72.3949C316.142 72.2753 315.971 72.1251 315.836 71.9442C315.701 71.7606 315.606 71.5619 315.55 71.3482C315.494 71.1346 315.48 70.9156 315.509 70.6914C315.537 70.4626 315.61 70.2456 315.73 70.0403L315.88 69.783C316 69.5777 316.151 69.408 316.335 69.2739C316.516 69.1381 316.713 69.0421 316.927 68.9858C317.14 68.9294 317.359 68.9158 317.584 68.9447C317.81 68.9709 318.025 69.0438 318.23 69.1634L318.526 69.3355C318.782 69.4847 318.982 69.6806 319.127 69.9233C319.272 70.166 319.355 70.4237 319.377 70.6964C319.625 70.581 319.891 70.5266 320.173 70.533C320.453 70.5378 320.721 70.6148 320.977 70.7639L321.479 71.0565ZM317.913 69.7076C317.778 69.629 317.638 69.5813 317.494 69.5648C317.346 69.5465 317.203 69.5556 317.065 69.592C316.927 69.6284 316.798 69.6909 316.679 69.7795C316.561 69.8653 316.463 69.9757 316.384 70.1107L316.264 70.3174C316.185 70.4524 316.137 70.5937 316.118 70.7414C316.102 70.8862 316.111 71.029 316.146 71.1698C316.182 71.3078 316.245 71.4365 316.333 71.556C316.419 71.6738 316.529 71.7721 316.664 71.8507L316.96 72.0228C317.095 72.1015 317.236 72.15 317.384 72.1682C317.528 72.1847 317.67 72.1748 317.808 72.1385C317.947 72.0993 318.076 72.0368 318.194 71.951C318.313 71.8624 318.413 71.7505 318.491 71.6155L318.612 71.4088C318.69 71.2738 318.738 71.1339 318.755 70.9891C318.773 70.8415 318.764 70.6987 318.727 70.5607C318.691 70.4227 318.63 70.2948 318.544 70.1769C318.455 70.0575 318.344 69.9584 318.209 69.8797L317.913 69.7076ZM320.66 71.3082C320.525 71.2295 320.385 71.1819 320.24 71.1653C320.092 71.1471 319.949 71.1561 319.812 71.1925C319.674 71.2289 319.545 71.2914 319.425 71.38C319.307 71.4658 319.209 71.5762 319.131 71.7112L319.01 71.9179C318.931 72.0529 318.883 72.1943 318.865 72.3419C318.848 72.4867 318.857 72.6295 318.892 72.7703C318.928 72.9083 318.991 73.037 319.079 73.1565C319.165 73.2743 319.276 73.3726 319.411 73.4513L319.913 73.7438C320.048 73.8225 320.189 73.8709 320.337 73.8892C320.481 73.9057 320.624 73.8967 320.765 73.8619C320.905 73.8227 321.033 73.7602 321.151 73.6744C321.271 73.5858 321.37 73.474 321.448 73.339L321.569 73.1323C321.648 72.9973 321.695 72.8574 321.712 72.7126C321.73 72.5649 321.721 72.4221 321.685 72.2841C321.645 72.1445 321.583 72.0158 321.497 71.8979C321.408 71.7785 321.297 71.6794 321.162 71.6007L320.66 71.3082ZM318.426 66.8018L320.674 68.1122L322.024 65.7962L322.543 66.0986L321.193 68.4146L323.956 70.025L323.639 70.5692L317.59 67.0436L319.574 63.6391L320.092 63.9415L318.426 66.8018ZM326.626 62.03C326.832 62.1496 327.001 62.3013 327.135 62.4849C327.271 62.6658 327.367 62.863 327.423 63.0767C327.48 63.2904 327.494 63.5115 327.466 63.7402C327.437 63.9645 327.363 64.1793 327.243 64.3846L326.127 66.2999L320.078 62.7743L321.194 60.859C321.313 60.6537 321.465 60.484 321.649 60.3499C321.831 60.2113 322.029 60.1139 322.243 60.0576C322.457 60.0012 322.677 59.9884 322.904 60.019C323.13 60.0451 323.346 60.118 323.551 60.2377L326.626 62.03ZM323.234 60.7819C323.099 60.7032 322.959 60.6556 322.814 60.639C322.666 60.6208 322.523 60.6313 322.383 60.6705C322.242 60.7052 322.112 60.7669 321.993 60.8555C321.875 60.9413 321.777 61.0517 321.698 61.1867L320.914 62.5325L325.925 65.4533L326.71 64.1075C326.788 63.9725 326.836 63.8326 326.853 63.6878C326.871 63.5401 326.862 63.3973 326.825 63.2593C326.791 63.1185 326.73 62.9892 326.645 62.8714C326.556 62.7519 326.444 62.6529 326.309 62.5742L323.234 60.7819ZM329.365 57.3304C329.57 57.45 329.74 57.6017 329.874 57.7853C330.01 57.9661 330.106 58.1634 330.162 58.3771C330.219 58.5907 330.233 58.8119 330.205 59.0406C330.176 59.2649 330.102 59.4797 329.982 59.685L328.866 61.6002L322.816 58.0747L323.933 56.1594C324.052 55.9541 324.204 55.7844 324.388 55.6503C324.57 55.5117 324.768 55.4143 324.982 55.3579C325.195 55.3016 325.416 55.2888 325.643 55.3194C325.869 55.3455 326.084 55.4184 326.29 55.5381L329.365 57.3304ZM325.973 56.0823C325.838 56.0036 325.698 55.956 325.553 55.9394C325.405 55.9212 325.262 55.9317 325.122 55.9709C324.981 56.0056 324.851 56.0673 324.732 56.1559C324.614 56.2417 324.515 56.3521 324.437 56.4871L323.652 57.8329L328.664 60.7536L329.449 59.4079C329.527 59.2729 329.575 59.133 329.591 58.9882C329.61 58.8405 329.601 58.6977 329.564 58.5597C329.529 58.4189 329.469 58.2896 329.383 58.1718C329.295 58.0523 329.183 57.9532 329.048 57.8746L325.973 56.0823Z" fill="black"/>
<path d="M362.301 100L319 25L405.603 25L362.301 100Z" fill="#FF9900"/>
<path d="M362.349 86.4399L362.926 85.4485L361.463 84.4204L361.76 83.9099L363.224 84.9381L364.04 83.5375L362.576 82.5093L362.874 81.9989L364.338 83.027L364.866 82.12L365.296 82.3708L364.743 83.32L366.752 84.7222L367.305 83.773L367.735 84.0238L367.155 85.0194L368.621 86.0433L368.324 86.5538L366.86 85.5256L366.044 86.9263L367.507 87.9544L367.21 88.4649L365.746 87.4367L365.218 88.3437L364.787 88.093L365.341 87.1438L363.332 85.7415L362.779 86.6907L362.349 86.4399ZM365.638 86.6333L366.454 85.2327L364.446 83.8304L363.63 85.231L365.638 86.6333ZM364.87 79.7658L367.119 81.0762L368.469 78.7602L368.988 79.0626L367.638 81.3787L370.401 82.989L370.084 83.5332L364.034 80.0076L366.018 76.6032L366.537 76.9056L364.87 79.7658ZM367.358 75.4965L369.607 76.8069L370.957 74.4909L371.476 74.7933L370.126 77.1093L372.889 78.7197L372.572 79.2639L366.522 75.7383L368.506 72.3338L369.025 72.6363L367.358 75.4965ZM375.543 70.9468C375.748 71.0665 375.918 71.2181 376.052 71.4018C376.188 71.5826 376.284 71.7799 376.34 71.9935C376.396 72.2072 376.411 72.427 376.385 72.6529C376.356 72.8771 376.282 73.0919 376.162 73.2972L376.01 73.5588C375.89 73.7641 375.74 73.9346 375.559 74.0704C375.376 74.2045 375.177 74.2997 374.963 74.356C374.75 74.4123 374.53 74.4274 374.304 74.4013C374.08 74.3723 373.865 74.298 373.659 74.1783L373.503 74.0874L373.736 73.494L373.977 73.6341C374.112 73.7128 374.253 73.7613 374.401 73.7795C374.545 73.796 374.688 73.787 374.829 73.7522C374.967 73.7159 375.095 73.6548 375.213 73.569C375.332 73.4803 375.431 73.3685 375.51 73.2335L375.63 73.0268C375.709 72.8918 375.757 72.7519 375.773 72.6071C375.792 72.4595 375.782 72.3167 375.746 72.1787C375.709 72.0362 375.647 71.9061 375.561 71.7882C375.472 71.6688 375.361 71.5697 375.226 71.491L373.724 70.6158C373.794 70.8449 373.819 71.0822 373.801 71.3275C373.779 71.5712 373.705 71.8027 373.577 72.0221L373.525 72.1107C373.405 72.316 373.255 72.4865 373.074 72.6223C372.891 72.7564 372.692 72.8516 372.478 72.9079C372.265 72.9642 372.045 72.9793 371.819 72.9532C371.592 72.9226 371.376 72.8474 371.17 72.7278L370.411 72.2853C370.206 72.1656 370.035 72.0154 369.9 71.8345C369.765 71.6509 369.67 71.4522 369.614 71.2386C369.558 71.0249 369.544 70.8059 369.573 70.5817C369.599 70.3558 369.672 70.1402 369.792 69.9349L369.944 69.6733C370.064 69.468 370.215 69.2983 370.399 69.1642C370.58 69.0284 370.777 68.9324 370.991 68.8761C371.204 68.8198 371.423 68.8061 371.648 68.835C371.873 68.8612 372.089 68.9341 372.294 69.0537L375.543 70.9468ZM371.977 69.598C371.842 69.5193 371.702 69.4717 371.557 69.4551C371.41 69.4369 371.266 69.4473 371.127 69.4865C370.989 69.5229 370.86 69.5854 370.74 69.674C370.623 69.7598 370.524 69.8702 370.446 70.0052L370.325 70.212C370.247 70.347 370.198 70.4883 370.18 70.6359C370.163 70.7807 370.173 70.9221 370.21 71.0601C370.246 71.1981 370.308 71.3268 370.397 71.4463C370.483 71.5641 370.593 71.6624 370.728 71.741L371.488 72.1836C371.623 72.2623 371.764 72.3107 371.912 72.3289C372.056 72.3455 372.199 72.3364 372.34 72.3017C372.478 72.2653 372.606 72.2042 372.724 72.1184C372.843 72.0298 372.942 71.918 373.021 71.783L373.141 71.5763C373.22 71.4413 373.268 71.3014 373.284 71.1565C373.302 71.0089 373.293 70.8661 373.257 70.7281C373.219 70.5857 373.158 70.4555 373.072 70.3377C372.983 70.2182 372.872 70.1192 372.737 70.0405L371.977 69.598ZM378.134 66.5003C378.339 66.62 378.509 66.7716 378.643 66.9553C378.779 67.1361 378.875 67.3334 378.931 67.547C378.988 67.7607 379.003 67.9805 378.977 68.2064C378.948 68.4306 378.873 68.6454 378.754 68.8507L378.601 69.1123C378.482 69.3176 378.331 69.4881 378.15 69.6239C377.967 69.758 377.768 69.8532 377.555 69.9095C377.341 69.9658 377.121 69.9809 376.895 69.9548C376.671 69.9258 376.456 69.8515 376.251 69.7318L376.095 69.6409L376.328 69.0475L376.568 69.1876C376.703 69.2663 376.844 69.3148 376.992 69.333C377.137 69.3495 377.28 69.3405 377.42 69.3057C377.558 69.2694 377.686 69.2083 377.804 69.1225C377.924 69.0338 378.023 68.922 378.101 68.787L378.222 68.5803C378.3 68.4453 378.348 68.3054 378.365 68.1606C378.383 68.013 378.374 67.8702 378.337 67.7322C378.3 67.5897 378.238 67.4596 378.152 67.3417C378.064 67.2223 377.952 67.1232 377.817 67.0445L376.315 66.1693C376.385 66.3984 376.411 66.6357 376.392 66.881C376.371 67.1247 376.296 67.3562 376.168 67.5756L376.116 67.6642C375.997 67.8695 375.847 68.04 375.666 68.1758C375.482 68.3099 375.283 68.4051 375.07 68.4614C374.856 68.5177 374.636 68.5328 374.41 68.5067C374.183 68.4761 373.967 68.4009 373.762 68.2813L373.002 67.8388C372.797 67.7191 372.627 67.5689 372.491 67.388C372.357 67.2044 372.262 67.0057 372.205 66.7921C372.149 66.5784 372.135 66.3594 372.164 66.1352C372.19 65.9093 372.263 65.6937 372.383 65.4884L372.535 65.2268C372.655 65.0215 372.807 64.8518 372.99 64.7177C373.171 64.5819 373.368 64.4859 373.582 64.4296C373.796 64.3733 374.015 64.3596 374.239 64.3885C374.465 64.4147 374.68 64.4876 374.886 64.6072L378.134 66.5003ZM374.569 65.1515C374.434 65.0728 374.294 65.0252 374.149 65.0086C374.001 64.9904 373.858 65.0008 373.718 65.04C373.58 65.0764 373.451 65.1389 373.332 65.2275C373.214 65.3133 373.116 65.4237 373.037 65.5587L372.917 65.7655C372.838 65.9005 372.789 66.0418 372.771 66.1894C372.755 66.3342 372.764 66.4756 372.801 66.6136C372.837 66.7516 372.9 66.8803 372.988 66.9998C373.074 67.1176 373.185 67.2159 373.32 67.2945L374.079 67.7371C374.214 67.8158 374.355 67.8642 374.503 67.8824C374.648 67.899 374.791 67.8899 374.931 67.8552C375.069 67.8188 375.197 67.7577 375.315 67.6719C375.435 67.5833 375.534 67.4715 375.612 67.3365L375.733 67.1298C375.811 66.9948 375.859 66.8549 375.876 66.71C375.894 66.5624 375.885 66.4196 375.848 66.2816C375.811 66.1392 375.749 66.009 375.663 65.8912C375.575 65.7717 375.463 65.6727 375.328 65.594L374.569 65.1515ZM380.674 62.1424C380.879 62.2621 381.049 62.4137 381.183 62.5974C381.319 62.7782 381.415 62.9755 381.471 63.1891C381.527 63.4028 381.542 63.6226 381.516 63.8485C381.487 64.0727 381.413 64.2875 381.293 64.4928L381.143 64.7502C381.024 64.9555 380.873 65.1274 380.69 65.266C380.507 65.4001 380.308 65.4953 380.094 65.5516C379.881 65.6079 379.661 65.623 379.435 65.5969C379.211 65.5679 378.996 65.4936 378.791 65.3739L375.542 63.4809C375.337 63.3612 375.166 63.211 375.031 63.0301C374.896 62.8465 374.801 62.6478 374.745 62.4341C374.689 62.2205 374.675 62.0015 374.704 61.7773C374.732 61.5486 374.805 61.3316 374.925 61.1262L375.075 60.8689C375.195 60.6636 375.346 60.4939 375.53 60.3598C375.711 60.224 375.908 60.128 376.122 60.0717C376.335 60.0154 376.554 60.0017 376.779 60.0306C377.004 60.0568 377.22 60.1297 377.425 60.2493L380.674 62.1424ZM377.108 60.7935C376.973 60.7149 376.833 60.6672 376.689 60.6507C376.541 60.6325 376.398 60.6415 376.26 60.6779C376.122 60.7143 375.993 60.7768 375.874 60.8654C375.756 60.9512 375.658 61.0616 375.579 61.1966L375.459 61.4033C375.38 61.5383 375.332 61.6796 375.313 61.8273C375.297 61.9721 375.306 62.1149 375.341 62.2557C375.377 62.3937 375.439 62.5224 375.528 62.6419C375.614 62.7597 375.724 62.858 375.859 62.9366L379.108 64.8297C379.243 64.9084 379.384 64.9568 379.532 64.9751C379.676 64.9916 379.819 64.9826 379.96 64.9478C380.1 64.9086 380.228 64.8461 380.346 64.7603C380.466 64.6717 380.565 64.5599 380.643 64.4249L380.764 64.2182C380.843 64.0832 380.89 63.9433 380.907 63.7985C380.925 63.6508 380.916 63.508 380.88 63.37C380.84 63.2304 380.778 63.1017 380.692 62.9838C380.603 62.8644 380.492 62.7653 380.357 62.6866L377.108 60.7935ZM383.265 57.6959C383.47 57.8156 383.64 57.9672 383.774 58.1509C383.91 58.3317 384.006 58.529 384.062 58.7426C384.119 58.9563 384.134 59.1761 384.108 59.402C384.079 59.6262 384.004 59.841 383.885 60.0463L383.735 60.3037C383.615 60.509 383.464 60.6809 383.281 60.8195C383.098 60.9536 382.899 61.0488 382.686 61.1051C382.472 61.1614 382.252 61.1765 382.026 61.1504C381.802 61.1214 381.587 61.0471 381.382 60.9274L378.133 59.0344C377.928 58.9147 377.758 58.7645 377.622 58.5836C377.488 58.4 377.393 58.2013 377.336 57.9876C377.28 57.774 377.266 57.555 377.295 57.3308C377.323 57.1021 377.397 56.8851 377.516 56.6797L377.666 56.4224C377.786 56.2171 377.938 56.0474 378.121 55.9133C378.302 55.7775 378.499 55.6815 378.713 55.6252C378.927 55.5689 379.146 55.5552 379.37 55.5841C379.596 55.6103 379.811 55.6832 380.017 55.8028L383.265 57.6959ZM379.7 56.347C379.565 56.2684 379.425 56.2207 379.28 56.2042C379.132 56.186 378.989 56.195 378.851 56.2314C378.713 56.2678 378.585 56.3303 378.465 56.4189C378.347 56.5047 378.249 56.6151 378.17 56.7501L378.05 56.9568C377.971 57.0918 377.923 57.2331 377.905 57.3808C377.888 57.5256 377.897 57.6684 377.932 57.8092C377.968 57.9472 378.031 58.0759 378.119 58.1954C378.205 58.3132 378.316 58.4115 378.451 58.4901L381.699 60.3832C381.834 60.4619 381.975 60.5103 382.123 60.5286C382.268 60.5451 382.411 60.5361 382.551 60.5013C382.691 60.4621 382.82 60.3996 382.938 60.3138C383.057 60.2252 383.156 60.1134 383.235 59.9784L383.355 59.7717C383.434 59.6367 383.482 59.4968 383.498 59.352C383.516 59.2043 383.507 59.0615 383.471 58.9235C383.432 58.7839 383.369 58.6552 383.283 58.5373C383.195 58.4179 383.083 58.3188 382.948 58.2401L379.7 56.347Z" fill="black"/>
</svg>