<?xml version="1.0" standalone="no"?>
<!DOCTYPE svg PUBLIC "-//W3C//DTD SVG 20010904//EN"
 "http://www.w3.org/TR/2001/REC-SVG-20010904/DTD/svg10.dtd">
<svg version="1.0" xmlns="http://www.w3.org/2000/svg"
 width="251.000000pt" height="251.000000pt" viewBox="0 0 251.000000 251.000000"
 preserveAspectRatio="xMidYMid meet">
<metadata>
Created by potrace 1.14, written by Peter Selinger 2001-2017
</metadata>
<g transform="translate(0.000000,251.000000) scale(0.100000,-0.100000)"
fill="#000000" stroke="none">
<path d="M1221 2496 c-5 -6 -12 -28 -16 -49 -9 -46 -16 -50 -128 -73 -89 -18
-89 -19 -111 -61 l-21 -43 -48 26 -48 25 3 -23 c3 -20 -2 -23 -33 -26 -25 -2
-40 3 -52 16 -17 19 -20 19 -132 -4 -132 -27 -170 -43 -179 -78 -3 -13 -8 -31
-11 -38 -5 -13 111 -197 192 -306 19 -25 25 -48 28 -100 8 -137 22 -224 47
-282 47 -112 62 -139 77 -143 10 -2 32 -43 55 -103 21 -54 42 -103 46 -107 4
-4 17 36 30 90 13 54 31 106 40 117 17 18 19 16 61 -39 l43 -57 2 -291 c1
-161 5 -302 8 -314 2 -12 8 -64 12 -115 6 -84 12 -106 70 -239 50 -115 63
-158 65 -204 3 -57 4 -60 44 -68 5 -1 11 27 13 63 3 54 14 90 67 210 58 132
64 153 70 235 3 50 9 110 12 135 3 25 7 167 7 317 l2 271 36 47 c21 26 39 52
42 58 4 9 8 9 12 -1 3 -6 10 -10 14 -7 5 3 14 -14 20 -37 25 -97 52 -180 56
-176 2 3 20 49 39 104 20 54 44 106 55 114 10 8 40 67 65 130 46 114 51 136
54 281 1 54 6 64 88 190 48 74 90 136 94 139 3 3 16 25 28 48 l22 44 -26 39
c-15 21 -35 40 -44 43 -17 5 -73 17 -106 23 -11 1 -46 8 -77 15 -49 10 -60 9
-75 -4 -10 -9 -33 -15 -53 -14 -29 1 -35 5 -36 24 -2 35 -8 35 -50 1 l-39 -31
-12 29 c-7 15 -12 33 -13 40 0 13 -6 16 -115 39 -107 22 -113 26 -121 79 -3
25 -9 45 -13 46 -40 5 -53 4 -60 -5z"/>
</g>
</svg>
